<svg xmlns="http://www.w3.org/2000/svg" viewBox="0 0 859.65 970.94"><title>join party_1</title><g id="Layer_2" data-name="Layer 2"><g id="Layer_1-2" data-name="Layer 1"><path d="M203.54,560.92a7.18,7.18,0,0,0-4.24-3.67c14.9-2.67,30.32-9.23,45.58-18.94C208.5,494,178.63,432.1,171.33,363.12,160.4,260,232.49,164.82,319.22,141.82A186.13,186.13,0,0,0,194.38,87.63C89.31,83.48-11.69,193.35,1.1,314.09,14.63,441.85,105.55,545.47,172,557.44a6.26,6.26,0,0,0-2.74,3l-10,24.65c-1.6,4,2,8.09,7.24,8.22l40.68,1c5.43.13,9.3-4.13,7.49-8.25Z"/><path d="M664.38,0c-78.25,1.05-150.89,65.05-175,147.13,88.35,26.35,147.73,116.13,137.48,217.94A324.89,324.89,0,0,1,608,444.78c20.38,14.34,40.7,23.28,58.87,25.57a6.32,6.32,0,0,0-2.58,3.18l-8.66,25.14c-1.39,4,2.46,8,7.67,7.82L704,505.34c5.43-.16,9.06-4.62,7-8.63l-12.41-24.55a7.17,7.17,0,0,0-4.43-3.45c72.62-17,152.87-129.07,164.35-243C870.83,103.42,782.6-1.58,664.38,0Z"/><path d="M587.62,383c-14.7,113.52-98.1,223.25-171.17,238.21a7.14,7.14,0,0,1,4.33,3.57l11.71,24.89c1.92,4.07-1.84,8.42-7.28,8.42H384.52c-5.21,0-8.94-4-7.44-8l9.37-24.89a6.28,6.28,0,0,1,2.66-3.1C322.44,611.7,229,510.35,212.32,383,196.56,262.57,294.83,150.25,400,151.82,518.19,153.57,603.41,261,587.62,383Z"/><path d="M447.43,970.94l-8.76-.53c11.76-101.65,2.57-173.43-7.21-215.75C420.91,709,407.54,687.19,407.4,687l8-2.63c.57.91,14,22.81,24.72,69.26C450,796.28,459.27,868.63,447.43,970.94Z"/><path d="M461.71,962.08c-54.1-134.79-125.8-152.71-179-211.41-44.17-48.68-93.07-77.21-98.87-124.5l8.76-.46c12.32,51.83,52.46,72.46,96.77,120.8,47,51.24,111.15,61.43,180.76,213.62Z"/><path d="M431.59,951.26l-8.73-.71c5.11-32.84,47.84-79.18,97.32-132.83,34.73-37.67,74.1-80.36,102.85-122,32.68-47.31,48.88-130.56,45.9-164.11l8.77-.41c3.08,34.71-13.42,119-46.81,167.38-29,42-68.53,84.85-103.4,122.67C478.65,874.23,436.46,920,431.59,951.26Z"/></g></g></svg>
