<?xml version="1.0" encoding="UTF-8" standalone="no"?>
<svg
   xmlns:dc="http://purl.org/dc/elements/1.1/"
   xmlns:cc="http://creativecommons.org/ns#"
   xmlns:rdf="http://www.w3.org/1999/02/22-rdf-syntax-ns#"
   xmlns:svg="http://www.w3.org/2000/svg"
   xmlns="http://www.w3.org/2000/svg"
   xmlns:sodipodi="http://sodipodi.sourceforge.net/DTD/sodipodi-0.dtd"
   xmlns:inkscape="http://www.inkscape.org/namespaces/inkscape"
   viewBox="0 0 859.65 970.94"
   version="1.1"
   id="svg17"
   sodipodi:docname="join party.svg"
   inkscape:version="0.92.4 (5da689c313, 2019-01-14)">
  <metadata
     id="metadata23">
    <rdf:RDF>
      <cc:Work
         rdf:about="">
        <dc:format>image/svg+xml</dc:format>
        <dc:type
           rdf:resource="http://purl.org/dc/dcmitype/StillImage" />
        <dc:title>join party_1</dc:title>
      </cc:Work>
    </rdf:RDF>
  </metadata>
  <defs
     id="defs21" />
  <sodipodi:namedview
     pagecolor="#ffffff"
     bordercolor="#666666"
     borderopacity="1"
     objecttolerance="10"
     gridtolerance="10"
     guidetolerance="10"
     inkscape:pageopacity="0"
     inkscape:pageshadow="2"
     inkscape:window-width="1600"
     inkscape:window-height="837"
     id="namedview19"
     showgrid="false"
     inkscape:zoom="0.24306342"
     inkscape:cx="429.82501"
     inkscape:cy="814.60221"
     inkscape:window-x="-8"
     inkscape:window-y="-8"
     inkscape:window-maximized="1"
     inkscape:current-layer="Layer_2" />
  <title
     id="title2">join party_1</title>
  <g
     id="Layer_2"
     data-name="Layer 2">
    <ellipse
       style="opacity:0.79799996;fill-opacity:1;fill-rule:evenodd;stroke:#ffffff;stroke-width:1;stroke-miterlimit:4;stroke-dasharray:0, 1, 2, 3, 4, 5, 6, 7, 8, 9, 10, 11, 12, 13, 14;stroke-dashoffset:0;stroke-opacity:1"
       id="path830"
       cx="290.04773"
       cy="292.10483"
       rx="232.44962"
       ry="259.19162" />
    <path
       id="path832"
       style="opacity:0.28400005;fill-opacity:1;fill-rule:evenodd;stroke:#ffffff;stroke-width:1;stroke-miterlimit:4;stroke-dasharray:0, 1, 2, 3, 4, 5, 6, 7, 8, 9, 10, 11, 12, 13, 14;stroke-dashoffset:0;stroke-opacity:1"
       d="m 602.72447,41.141256 a 203.65056,269.47699 0 0 0 -96.25586,32.197266 c 1.55234,1.060823 3.04488,2.440822 4.46094,4.236332 2.692,3.413353 3.52342,7.753883 4.13476,12.205073 0.56053,0.65664 1.0603,1.28487 1.37891,1.74414 8.06133,11.620513 6.57575,11.397983 7.12695,23.593753 -1.49386,12.07603 -0.0426,3.37838 -2.05469,5.78516 1.22669,0.954 2.401,1.99183 3.5586,2.98438 5.27596,4.52372 5.99209,8.24852 8.50781,13.96093 0.20203,0.2283 0.38256,0.45007 0.57813,0.68164 -0.24806,-0.65801 -0.52311,-1.38034 -0.66211,-1.77929 5.48684,8.50586 3.52193,5.16559 0.66211,1.77929 0.50237,1.33275 0.98062,2.60798 0.5996,1.8418 -0.44026,-0.88533 -0.82554,-1.72372 -1.17773,-2.52344 -0.98049,-1.10793 -2.01194,-2.13719 -2.85742,-2.64843 -2.55142,-1.54279 -10.72192,-4.36043 -8.66992,-2.19727 6.0084,6.33384 16.10829,8.29382 21.1875,15.39453 1.62277,2.26863 0.18054,24.82648 0.0273,28.09375 -0.0273,1.14705 -0.0397,2.29434 -0.0644,3.44141 1.05571,1.62245 2.09173,3.25767 3.10351,4.90625 11.38334,18.54774 6.61244,33.22202 -3.54883,37.57617 -0.0342,28.32707 0.32431,56.65885 0.38477,84.98437 -0.0636,18.17134 -0.10304,36.34225 -0.0801,54.51368 0.0154,9.84566 0.007,19.69145 0.002,29.53711 0.63437,8.64996 -0.8279,15.10174 -3.66601,23.67968 -0.5775,1.74542 -1.11367,3.59259 -2.25586,5.03321 -1.33095,1.67868 -2.80186,3.23422 -4.30859,4.75976 -0.46192,3.31814 -0.94162,6.63238 -2.50977,9.5332 -3.49701,6.46892 -7.46938,9.10547 -12.35351,11.12305 -0.67235,4.43693 0.51348,5.82659 -4.35157,12.16016 -3.35376,4.36609 -8.19424,7.3553 -12.29101,11.0332 -4.29529,0.71318 -8.58948,1.42744 -12.88477,2.14063 0.10294,0.0363 0.20625,0.0739 0.29102,0.12304 0.0629,0.0365 0.10257,0.0747 0.14453,0.11328 0.52466,-0.0171 0.86414,0.004 0.46484,0.18164 -0.10504,0.0468 -0.22266,0.10303 -0.33008,0.15235 -0.14102,0.78058 -2.94188,1.78549 -4.1289,2.35351 -3.41144,1.63246 -7.05195,2.73452 -10.57813,4.10157 -1.15147,2.57292 -0.40321,1.25045 -6.77539,2.80859 -0.1363,0.0333 -0.3089,0.10033 -0.45898,0.14648 -0.91113,1.39297 -1.93259,2.67627 -3.26367,3.6543 -2.12048,1.55805 -7.28162,4.11556 -12.58985,5.59961 A 203.65056,269.47699 0 0 0 602.72447,580.09439 203.65056,269.47699 0 0 0 806.37486,310.61782 203.65056,269.47699 0 0 0 602.72447,41.141256 Z m -86.85938,54.306641 c 0.20314,1.25829 0.43148,2.50337 0.74805,3.70508 0.15459,-1.12078 0.21942,-1.81042 0.26562,-2.30273 -0.32367,-0.47263 -0.661,-0.94048 -1.01367,-1.40235 z m -40.57422,5.412113 a 203.65056,269.47699 0 0 0 -0.26171,0.26563 c -0.0649,0.13711 -0.13687,0.26909 -0.19922,0.4082 0.0408,0.0643 0.0689,0.11096 0.10351,0.16602 0.15118,-0.32833 0.26127,-0.59876 0.35742,-0.83985 z m 12.51172,3.23242 c -0.079,-0.0692 -0.75603,1.44933 -1.54687,3.25977 0.15303,0.0299 0.32259,0.0697 0.48828,0.10742 0.39921,-0.99111 0.7595,-1.99611 1.01367,-3.03711 0.0507,-0.2078 0.0646,-0.3128 0.0449,-0.33008 z m 32.88867,18.12305 c -1.00152,1.84575 -2.49872,5.42868 -4.79687,12.22266 -1.18749,3.51053 2.80728,-5.17588 5.36133,-9.43164 -0.17323,-0.87451 -0.34008,-1.72068 -0.56446,-2.79102 z m -70.00585,10.07813 c -0.21439,-0.0843 -0.36697,0.0993 -0.44336,0.62109 -0.0885,0.60446 0.78602,1.53989 1.32617,2.12305 0.21586,-0.12662 0.43079,-0.25173 0.64648,-0.37305 -0.63062,-1.32318 -1.16825,-2.22915 -1.52929,-2.37109 z m -1.4043,1.64453 a 203.65056,269.47699 0 0 0 -3.67578,5.4414 c 0.0458,-0.0431 0.0856,-0.0907 0.13281,-0.13281 1.77251,-1.58 3.64826,-2.90392 5.5293,-4.0293 -0.69354,-0.37473 -1.34688,-0.8153 -1.98633,-1.27929 z m -6.15039,9.74804 a 203.65056,269.47699 0 0 0 -9.83008,17.67188 c 0.0438,-0.0383 0.1011,-0.0623 -0.0391,0.0879 a 203.65056,269.47699 0 0 0 -0.57227,1.23437 c 0.94226,-0.48103 1.67559,-0.65072 1.4043,-0.11328 1.45157,-1.24922 2.88324,-2.52141 4.30469,-3.80664 0.12614,-1.21545 0.71713,-2.42784 1.88672,-3.63672 0.44267,-0.45755 0.9034,-0.82393 1.37304,-1.14648 -0.0793,-0.0913 -0.16115,-0.19991 -0.24023,-0.28906 -0.36492,-0.4114 -0.22657,-0.7382 0.18359,-1.01367 -0.27617,-0.38768 -0.34775,-1.06855 -0.27148,-1.32227 0.73001,-2.42827 1.02836,-5.20434 1.80078,-7.66602 z m -1.5293,8.98829 c 0.18715,0.2627 0.46507,0.39412 0.86524,0.15429 0.52598,-0.31525 1.03784,-0.65256 1.54296,-1 -0.95697,0.24672 -1.90031,0.50459 -2.4082,0.84571 z m 2.4082,-0.84571 c 0.9125,-0.23526 1.8295,-0.4612 2.42383,-0.72265 0.13205,-0.0581 0.004,0.32332 -0.10351,0.41992 -0.44265,0.39918 -0.88128,0.80381 -1.32227,1.20508 1.59623,-0.15437 3.28015,0.22011 5.00977,0.98828 0.22517,-0.50016 0.46282,-0.99539 0.72265,-1.48242 -1.11198,-1.06427 -2.13607,-2.11607 -2.93945,-3.13672 -1.27517,0.89158 -2.50937,1.84692 -3.79102,2.72851 z m 0.99805,0.90235 c -1.17032,0.11318 -2.29146,0.51938 -3.34961,1.24609 0.28255,0.32507 0.56954,0.67892 0.85547,1.0293 0.82959,-0.76067 1.66195,-1.51814 2.49414,-2.27539 z m -7.41992,9.80078 c -1.04887,0.41274 -2.92194,1.1447 -4.58399,1.79101 -0.003,0.005 -0.006,0.0102 -0.01,0.0156 0.4383,-0.1714 5.34588,-2.10261 4.59375,-1.80664 z m 1.44336,141.59375 c -0.13691,-0.0123 -0.065,0.073 0.30078,0.28711 2.52039,1.4754 4.83398,2.70645 7.01367,3.90625 -0.28309,-0.33821 -0.58044,-0.66519 -0.90039,-0.97266 -1.32423,-1.27255 -5.8208,-3.16741 -6.41406,-3.2207 z m -39.35938,26.51367 a 203.65056,269.47699 0 0 0 17.80469,91.11523 c -0.12868,-4.18053 0.79623,-8.40292 1.50781,-13.21093 2.04075,-6.94768 0.79064,-13.93578 0.54493,-21.01758 0.0344,-10.18738 0.16995,-20.37245 0.13086,-30.56055 -0.0154,-2.86001 -0.0156,-5.72005 -0.0176,-8.58008 -5.52315,-4.52045 -14.58161,-12.4828 -19.97071,-17.74609 z m 61.10743,12.76953 c -0.002,3.37113 0.005,6.74218 0.0156,10.11328 0.58643,-2.58289 1.27843,-5.14885 1.82227,-7.73828 0.18145,-0.29005 0.38587,-0.66109 0.5957,-1.05078 -0.87793,-0.47272 -1.62727,-0.88461 -2.43359,-1.32422 z m 41.14453,15.31836 c -0.2874,0.72412 -0.59326,1.45245 -0.92774,2.19336 1.8087,1.60078 0.21171,4.95179 0.33008,7.41015 0.23864,4.95632 0.44669,9.91459 0.59961,14.87305 0.003,-7.08016 0.009,-14.16053 -0.002,-21.24023 -10e-4,-1.07875 9.4e-4,-2.15759 0,-3.23633 z m -41.23243,22.76562 c -0.015,1.56904 -0.0249,3.13798 -0.041,4.70704 0.0839,2.91596 0.2437,5.83727 0.36914,8.75585 -0.0128,-4.48908 -0.15284,-8.97607 -0.32813,-13.46289 z m 41.44532,16.41797 c -3.7e-4,0.0547 3.9e-4,0.10937 0,0.16407 0.004,-0.004 0.009,-0.01 0.0137,-0.0137 -0.004,-0.0499 -0.01,-0.1004 -0.0137,-0.15039 z m 0.0801,1.48242 c -0.0321,0.0595 -0.0653,0.11836 -0.0977,0.17774 -0.008,0.63986 -0.0191,1.28001 -0.0312,1.91992 0.11051,-0.6803 0.14272,-1.38267 0.12891,-2.09766 z m -41.46485,9.9668 c -0.0588,0.49247 -0.1198,0.98495 -0.19336,1.47656 0.0452,0.0505 0.0944,0.10312 0.14063,0.1543 0.019,-0.56678 0.0334,-1.06243 0.0527,-1.63086 z m 67.12695,20.52539 c -0.29573,0.30086 -0.59929,0.59569 -0.89062,0.90039 0.0702,0.0282 0.14069,0.0558 0.21094,0.084 0.22204,-0.33102 0.45414,-0.65558 0.67968,-0.98438 z m -106.33007,3.70313 a 203.65056,269.47699 0 0 0 7.48047,17.13281 c 0.48891,-0.24402 0.96835,-0.49125 1.46093,-0.73437 0.56944,-1.97791 3.79373,-4.14447 7.07422,-5.92774 -4.99129,-0.77587 -9.7262,-2.86893 -14.00195,-7.85156 -0.76657,-0.8933 -1.41539,-1.76159 -2.01367,-2.61914 z m 89.01755,14.72656 c -0.6426,0.23412 -1.26683,0.45373 -1.9375,0.71289 3.71855,-0.74196 2.96773,-0.51254 1.9375,-0.71289 z"
       inkscape:connector-curvature="0" />
    <path
       style="stroke:#000000;stroke-width:1px;stroke-linecap:butt;stroke-linejoin:miter;stroke-opacity:1"
       d="m 300.33314,563.6389 c -3.51208,10.44935 6.1247,16.27049 8.22831,24.68492 0.66521,2.66087 0,5.48553 0,8.2283 0,6.85692 0,13.71384 0,20.57077 0,16.45661 0,32.91322 0,49.36983 0,6.85692 0,13.71384 0,20.57076 0,2.74277 0,5.48554 0,8.2283 0,1.37139 1.37138,4.11416 0,4.11416 -1.37139,0 0,-5.48554 0,-4.11416 0,2.74277 0,5.48554 0,8.22831 0,5.48554 -0.90182,11.04571 0,16.45661 5.70223,34.21344 1.12753,3.3826 8.2283,24.68491 1.78807,5.3642 3.00524,10.91206 4.11415,16.45662 1.63597,8.17981 3.19296,16.39413 4.11416,24.68491 0.45433,4.08899 0,8.22831 0,12.34246 0,2.74277 -0.66522,5.56743 0,8.2283 1.48747,5.9499 6.28887,10.63832 8.2283,16.45661 0.43367,1.30101 -0.6133,2.88755 0,4.11416 0.86734,1.73467 3.24681,2.37947 4.11415,4.11415 0.6133,1.2266 -0.96971,3.14444 0,4.11415 2.05708,2.05708 10.28538,-2.05708 12.34246,0 1.93943,1.93943 -1.2266,5.7751 0,8.22831 8.56106,17.12211 -0.28402,-4.39818 8.22831,4.11415 0.96971,0.96971 0,2.74277 0,4.11415 0,1.37139 1.37138,4.11415 0,4.11415 -1.37139,0 1.37138,-4.11415 0,-4.11415 -5.08387,0 -4.11416,5.76956 -4.11416,8.22831 0,1.37138 -0.96971,3.14443 0,4.11415 0.96972,0.96971 2.88755,-0.6133 4.11416,0 1.73467,0.86734 2.50045,3.03835 4.11415,4.11415 2.55149,1.70099 6.05995,1.94581 8.2283,4.11415 0.99,0.99 -0.98999,15.46662 0,16.45661 0.96972,0.96972 3.14444,-0.96971 4.11416,0 0.96971,0.96972 0,2.74277 0,4.11416 0,1.37138 1.37138,4.11415 0,4.11415 -1.37139,0 0,-5.48554 0,-4.11415 0,2.74277 0,5.48553 0,8.2283 0,1.37139 1.37138,4.11415 0,4.11415 -1.37139,0 -1.37139,-4.11415 0,-4.11415 8.56105,0 1.6554,5.76956 4.11415,8.22831 0.96971,0.96971 3.14444,-0.96972 4.11415,0 0.96972,0.96971 0,2.74277 0,4.11415 0,1.37138 1.37139,4.11415 0,4.11415 -1.37138,0 0,-5.48553 0,-4.11415 0,4.11415 0,8.2283 0,12.34246 0,8.2283 0,16.45661 0,24.68491"
       id="path872"
       inkscape:connector-curvature="0" />
    <path
       style="fill:none;stroke:#000000;stroke-width:1px;stroke-linecap:butt;stroke-linejoin:miter;stroke-opacity:1"
       d="m 617.12289,625.35119 c -4.11416,5.48554 -8.94048,10.50314 -12.34246,16.45661 -2.15161,3.76531 -2.86801,8.18866 -4.11415,12.34246 -2.86884,9.56277 -6.13641,19.03686 -8.22831,28.79907 -2.03183,9.48189 -1.76225,19.39145 -4.11415,28.79906 -3.15541,12.62165 -8.46187,24.6095 -12.34246,37.02738 -19.23299,61.54556 -0.4541,3.64643 -12.34246,45.25568 -1.37138,4.11415 -2.74276,8.2283 -4.11415,12.34245 0,2.74277 0.66522,5.56743 0,8.22831 -1.48747,5.9499 -6.28887,10.63832 -8.2283,16.45661 -0.43367,1.30101 0.96971,3.14444 0,4.11415 -2.16835,2.16835 -6.05996,1.9458 -8.22831,4.11415 -0.96971,0.96972 0.96972,3.14444 0,4.11416 -3.49636,3.49635 -8.8461,4.73194 -12.34246,8.2283 -2.16835,2.16835 -1.9458,6.05996 -4.11415,8.22831 -0.96971,0.96971 -3.14444,-0.96972 -4.11415,0 -0.96972,0.96971 0.6133,2.88755 0,4.11415 -1.73468,3.46936 -6.49363,4.75895 -8.22831,8.2283 -0.6133,1.22661 0.96972,3.14444 0,4.11416 -8.51233,8.51232 0.33276,-13.00797 -8.2283,4.11415 -0.6133,1.2266 0.96971,3.14444 0,4.11415 -8.51233,8.51233 0.33275,-13.00796 -8.22831,4.11415 -2.83744,5.67489 4.98247,3.68 -4.11415,8.22831 -2.45321,1.2266 -6.28887,-1.93943 -8.2283,0 -0.96972,0.96971 0.96971,3.14444 0,4.11415 -8.51233,8.51233 0.33275,-13.00796 -8.22831,4.11415 -0.6133,1.22661 0.96971,3.14444 0,4.11416 -1.93943,1.93943 -6.28888,-1.93943 -8.22831,0 -0.96971,0.96971 0.96972,3.14443 0,4.11415 -0.96971,0.96971 -3.14443,-0.96972 -4.11415,0 -0.96971,0.96971 0.96972,3.14444 0,4.11415 -0.96971,0.96972 -3.14444,-0.96971 -4.11415,0 -0.96972,0.96972 0.96971,3.14444 0,4.11415 -0.96972,0.96972 -3.14444,-0.96971 -4.11415,0 -0.96972,0.96972 0.96971,3.14444 0,4.11416 -1.93943,1.93943 -6.28888,-1.93943 -8.22831,0 -1.93943,1.93943 1.93943,6.28887 0,8.2283 -0.96971,0.96972 -3.14444,-0.96971 -4.11415,0 -0.96972,0.96972 0.96971,3.14444 0,4.11415 -0.96972,0.96972 -2.88755,-0.6133 -4.11415,0 -3.46936,1.73468 -4.75895,6.49363 -8.22831,8.22831 -1.2266,0.6133 -3.14444,-0.96972 -4.11415,0 -0.96972,0.96971 0.96971,3.14444 0,4.11415 -0.96972,0.96972 -2.88755,-0.6133 -4.11415,0 -1.73468,0.86734 -2.37948,3.24682 -4.11416,4.11415 -1.2266,0.61331 -3.14443,-0.96971 -4.11415,0 -0.96971,0.96972 0.96972,3.14444 0,4.11416 -0.96971,0.96971 -2.78371,0.33261 -4.11415,0 -9.68574,-2.42144 -19.19938,-5.48554 -28.79907,-8.22831"
       id="path874"
       inkscape:connector-curvature="0" />
  </g>
</svg>
