<svg xmlns="http://www.w3.org/2000/svg" viewBox="0 0 934.43 754.23"><title>restaurant corner_1</title><g id="Layer_2" data-name="Layer 2"><g id="Layer_1-2" data-name="Layer 1"><path d="M651.24,68.29h0q-307.33,0-614.64.3c-8.35,0-10.34-3.47-9.84-14.78.67-14.92.44-30,.06-44.94-.18-7.13,1.5-9.5,6.15-8.6a28.75,28.75,0,0,0,5.41,0H467.43Q682.73.31,898,0c8.15,0,9.93,3.37,9.47,14.28-.45,10.15-.49,20.36-.35,30.57v.23l.58,23.21Z" fill="#44b342"/><path d="M934.43,721.27q0,15.87-.07,31.73a52.55,52.55,0,0,1-6.91.92q-460,.06-919.92.31c-6.37,0-7.75-3.25-7.5-13.76.47-20,.13-20.05,11.36-20.05q457.42,0,914.84,0A81.59,81.59,0,0,1,934.43,721.27Z" fill="#44b342"/><path d="M463.1,423.3H608.38a58.13,58.13,0,0,1,8.86.19c6.17.95,10.46,4.64,10.49,12.89s-4.09,12.09-10.34,13a62.33,62.33,0,0,1-8.86.17c-39.19,0-78.37.29-117.55-.19-7.93-.09-9.8,2.87-9.75,12.11q.5,90.09,0,180.17c-.06,9.66,1.48,13.55,10.2,12.89,12.89-1,25.88.23,38.79-.42,8-.4,7.11,5.8,6.54,11.35s3.75,14.61-6.23,14.59q-68.2-.09-136.4,0c-10,0-5.79-8.93-6.28-14.45-.47-5.33-1.91-11.89,6.34-11.51,13.66.62,27.36-.15,41,.31,6,.2,8.29-1.6,8.25-9.52q-.37-92.76.05-185.54c.05-9.07-2.94-10-9.09-9.95-39.55.26-79.11.14-118.66.12-3.32,0-6.73.35-9.95-.42-5.15-1.23-8.64-5.05-8.91-11.87-.3-7.47,3.17-11.83,8.78-13.38,3.18-.88,6.61-.54,9.93-.55Q389.36,423.28,463.1,423.3Z" fill="#44b342"/><path d="M116.88,509.29q0-76.68,0-153.37c0-12.25,9.55-19.73,17.79-12.79,6.52,5.49,12.86,11,12,24.51-1.71,25.85-.46,52-.53,78,0,4.6,1.36,10.22-5.35,10.27-5.16,0-3.9,5.44-3.93,9.12-.13,13.91.35,27.83-.2,41.7-.34,8.35,1.83,10.56,8.67,10.5,39.58-.4,79.16-.21,118.74-.18,5.23,0,11.65-2.29,10.63,9.17-.67,7.61,2,17.19-9.35,14.95-7.33-1.44-6.05,5.37-6.05,10.52,0,38.12-.35,76.25.2,114.35.16,10.46-2.61,12.51-10.62,12.54s-9.76-3.38-9.65-12.42c.42-31.84-.41-63.71.45-95.51.33-12.54-3.18-14.69-12.47-14.43q-38.82,1.1-77.67,0c-9.63-.27-13.38,2.08-13,15.1.88,31.81-.05,63.68.48,95.51.17,10-2.95,11.59-10.23,11.69-7.53.11-10.12-2-10-11.8C117.1,614.24,116.89,561.77,116.88,509.29Z" fill="#44b342"/><path d="M816.35,510.23c0,52-.28,104,.22,156,.1,10.64-2.85,12.35-10.7,12.4s-9.9-2.78-9.77-12.12c.47-33.16,0-66.34.35-99.51.09-8.12-1.63-10.82-8.59-10.71q-42.71.68-85.4,0c-6.72-.09-8.9,2.23-8.81,10.55.35,33.17-.12,66.35.32,99.51.12,9.28-1.9,12.18-9.79,12.27-8.2.09-10.67-2.44-10.52-12.68.54-37.64.15-75.3.34-113,0-7.45,0-13.24-8.46-12.06-10.94,1.52-5.86-9.06-6.84-14.78-1.41-8.17,2.44-9.29,8.21-9.25,39.93.24,79.86-.14,119.79.35,7.75.09,10.36-2.28,9.78-11.84-.7-11.59,0-23.3-.25-34.94-.16-6.31,3-15-7.06-15.49-3.27-.15-2.21-5.05-2.22-7.92q-.12-44.37,0-88.75c0-3.22-.35-6,3.12-8.76,7.73-6.19,15.65-9.76,24.45-6.42,3.38,1.28,1.7,7.27,1.71,11.1q.13,78,.06,156Z" fill="#44b342"/><path d="M820.28,282.73c-8.64,20.33-46,23.26-60.14,5.72-3.6-4.49-4.77-4.18-8.07.12-12.13,15.82-49.19,16.28-59.87-5.31-17.22,22.7-48.31,22.62-64.64-.16-10.48,21.46-47.3,21.62-59.82,5.59-3.93-5-5.29-3.59-8.76.33-15.19,17.13-46.7,13.89-59.22-5.64-18.14,22.46-48.41,22.59-64.87-.19-7.13,12.43-17.82,16-29.38,16.59S382.4,298.51,374,287.41c-3.32-4.36-4.3-2.5-6.73.65-13.34,17.33-51.4,15.83-60.65-5.15-14.19,21-44.51,23.41-61.29,4.36-2.73-3.11-3.33-3.17-6.08,0C223,305.94,193.8,304.16,178.42,284c-14.06,21.06-51.35,22.2-64.84-.87-7.79,19-42.66,22.73-58.7,7.2-6.08-5.89-5.25-13.74-5.24-21.56,0-20.46,0-20.46,16.83-20.46q403.28,0,806.54-.23c8.88,0,12.15,1.73,11.8,13.69-.85,28.73-8.15,38.32-32.29,38.13C840.12,299.75,828.52,296.75,820.28,282.73Z" fill="#76ff03"/><path d="M338.87,232.8c-8.65,0-17.3-.14-25.94.06-4.45.1-6.23-.78-4.1-6.9q20.24-58.38,40-117c1.37-4,3.39-5.6,7-5.53,11.74.21,23.48.3,35.21,0,5.53-.15,6,2.59,4.86,8.21q-11.93,57-23.46,114.21c-1.1,5.46-3.17,7.25-7.64,7.07C356.17,232.56,347.52,232.8,338.87,232.8Z" fill="#44b342"/><path d="M883.1,232.8c-20.63,0-39.72,0-58.81,0a7.47,7.47,0,0,1-6.56-3.21c-31-41.17-62-82.32-94.74-125.77,16.67,0,31.2-.11,45.72.17,1.5,0,3.11,2.23,4.43,3.72Q826.87,168,880.52,228.43A37.82,37.82,0,0,1,883.1,232.8Z" fill="#44b342"/><path d="M211.4,103.56C196,124.1,182.51,142.05,169,160c-16.46,21.85-33.06,43.55-49.34,65.59-3.79,5.14-7.57,7.6-13.46,7.44-17.87-.51-35.75-.18-53.64-.18-.7-4.4,2.16-5.55,3.75-7.35q51.92-58.53,104-116.89c2-2.28,3.79-5,6.94-5Z" fill="#44b342"/><path d="M178.08,232.8l77.27-125.26c1.33-2.16,2.77-4,5.24-4,14.07,0,28.14,0,43.72,0-5.78,12.19-10.77,22.8-15.83,33.36-14.07,29.39-28.28,58.7-42.17,88.22-2.58,5.48-5.37,8-10.83,7.82C217.07,232.52,198.66,232.8,178.08,232.8Z" fill="#44b342"/><path d="M466.75,232.8c-8.33,0-16.66-.19-25,.08-4.4.15-6.86-.69-6.39-7.24,2.77-38.73,5.31-77.48,7.85-116.24.27-4.18,1.83-5.93,5.25-5.91,12.34.08,24.68.12,37,0,4,0,5.26,2.13,5.55,6.7,2.44,38,4.91,76,7.69,114,.53,7.18-1.33,9.12-7,8.77C483.42,232.42,475.08,232.8,466.75,232.8Z" fill="#44b342"/><path d="M754.25,232.8c-19.68,0-38.8-.1-57.91.08-3.63,0-5.5-1.87-7.2-5.45q-27.76-58.21-55.76-116.27c-2.84-5.88-1.84-7.81,3.66-7.71,11.41.2,22.83.13,34.24,0,3.3,0,5.73.93,7.87,4.41q37.22,60.78,74.66,121.36C754.11,229.72,754,230.59,754.25,232.8Z" fill="#44b342"/><path d="M595,232.81H584.78c-21.61,0-21.59,0-26.64-24.85-6.48-31.92-12.77-63.91-19.65-95.72-1.67-7.71.19-9,5.88-8.84,10.8.34,21.61.31,32.42,0,4.55-.13,7.2,1.29,9.07,6.87q19.18,57.11,39,113.89c2.48,7.1,1.51,9.16-4.87,8.77C611.67,232.42,603.31,232.8,595,232.81Z" fill="#44b342"/></g></g></svg>